<svg xmlns="http://www.w3.org/2000/svg" viewBox="0 0 1280 640" fill="none">
  <!-- ═══════════════════════════════════════════════════════════════
       PAWL — PAW Agents Desktop Companion Sprite Sheet
       A cute purple dog mascot. 128x128 per frame, 10 columns × 5 rows.
       
       Row 1: Idle states (front, left, right, sit-front, blink)
       Row 2: Emotions (happy, excited, mad, sad, confused)
       Row 3: Actions (bark, alert, success, error, thinking)
       Row 4: Movement (walk-left-1, walk-left-2, walk-right-1, walk-right-2, jump)
       Row 5: Special (sleep, wag-1, wag-2, notification, love)
       ═══════════════════════════════════════════════════════════════ -->
  
  <defs>
    <!-- Base dog body color -->
    <linearGradient id="fur" x1="0%" y1="0%" x2="100%" y2="100%">
      <stop offset="0%" stop-color="#a78bfa"/>
      <stop offset="100%" stop-color="#7c3aed"/>
    </linearGradient>
    <linearGradient id="furDark" x1="0%" y1="0%" x2="100%" y2="100%">
      <stop offset="0%" stop-color="#8b5cf6"/>
      <stop offset="100%" stop-color="#6d28d9"/>
    </linearGradient>
    <linearGradient id="belly" x1="50%" y1="0%" x2="50%" y2="100%">
      <stop offset="0%" stop-color="#ede9fe"/>
      <stop offset="100%" stop-color="#ddd6fe"/>
    </linearGradient>
  </defs>

  <!-- ═══ ROW 1: IDLE STATES ═══ -->
  
  <!-- Frame 0,0: Idle Front -->
  <g transform="translate(0,0)">
    <!-- Body -->
    <ellipse cx="64" cy="82" rx="28" ry="24" fill="url(#fur)"/>
    <!-- Belly -->
    <ellipse cx="64" cy="86" rx="18" ry="14" fill="url(#belly)"/>
    <!-- Head -->
    <circle cx="64" cy="48" r="24" fill="url(#fur)"/>
    <!-- Ears -->
    <ellipse cx="44" cy="30" rx="10" ry="16" fill="url(#furDark)" transform="rotate(-15,44,30)"/>
    <ellipse cx="84" cy="30" rx="10" ry="16" fill="url(#furDark)" transform="rotate(15,84,30)"/>
    <!-- Inner ears -->
    <ellipse cx="44" cy="32" rx="6" ry="10" fill="#c4b5fd" transform="rotate(-15,44,32)"/>
    <ellipse cx="84" cy="32" rx="6" ry="10" fill="#c4b5fd" transform="rotate(15,84,32)"/>
    <!-- Eyes -->
    <circle cx="54" cy="46" r="5" fill="#1e1e32"/>
    <circle cx="74" cy="46" r="5" fill="#1e1e32"/>
    <circle cx="56" cy="44" r="2" fill="white"/>
    <circle cx="76" cy="44" r="2" fill="white"/>
    <!-- Nose -->
    <ellipse cx="64" cy="56" rx="4" ry="3" fill="#4c1d95"/>
    <!-- Mouth -->
    <path d="M60 59 Q64 63 68 59" stroke="#4c1d95" stroke-width="1.5" fill="none"/>
    <!-- Legs -->
    <rect x="46" y="98" width="10" height="16" rx="5" fill="url(#fur)"/>
    <rect x="72" y="98" width="10" height="16" rx="5" fill="url(#fur)"/>
    <!-- Paws -->
    <ellipse cx="51" cy="114" rx="7" ry="4" fill="url(#furDark)"/>
    <ellipse cx="77" cy="114" rx="7" ry="4" fill="url(#furDark)"/>
    <!-- Tail -->
    <path d="M92 80 Q105 65 98 55" stroke="url(#fur)" stroke-width="6" fill="none" stroke-linecap="round"/>
  </g>

  <!-- Frame 1,0: Idle Left -->
  <g transform="translate(128,0)">
    <ellipse cx="60" cy="82" rx="28" ry="24" fill="url(#fur)"/>
    <ellipse cx="58" cy="86" rx="18" ry="14" fill="url(#belly)"/>
    <circle cx="56" cy="48" r="24" fill="url(#fur)"/>
    <ellipse cx="36" cy="30" rx="10" ry="16" fill="url(#furDark)" transform="rotate(-20,36,30)"/>
    <ellipse cx="72" cy="32" rx="8" ry="14" fill="url(#furDark)" transform="rotate(5,72,32)"/>
    <ellipse cx="36" cy="32" rx="6" ry="10" fill="#c4b5fd" transform="rotate(-20,36,32)"/>
    <!-- Eyes looking left -->
    <circle cx="46" cy="46" r="5" fill="#1e1e32"/>
    <circle cx="63" cy="46" r="4" fill="#1e1e32"/>
    <circle cx="44" cy="44" r="2" fill="white"/>
    <circle cx="61" cy="44" r="1.5" fill="white"/>
    <ellipse cx="54" cy="56" rx="4" ry="3" fill="#4c1d95"/>
    <path d="M50 59 Q54 63 58 59" stroke="#4c1d95" stroke-width="1.5" fill="none"/>
    <rect x="42" y="98" width="10" height="16" rx="5" fill="url(#fur)"/>
    <rect x="68" y="98" width="10" height="16" rx="5" fill="url(#fur)"/>
    <ellipse cx="47" cy="114" rx="7" ry="4" fill="url(#furDark)"/>
    <ellipse cx="73" cy="114" rx="7" ry="4" fill="url(#furDark)"/>
    <path d="M88 80 Q101 65 95 55" stroke="url(#fur)" stroke-width="6" fill="none" stroke-linecap="round"/>
  </g>

  <!-- Frame 2,0: Idle Right -->
  <g transform="translate(256,0)">
    <ellipse cx="68" cy="82" rx="28" ry="24" fill="url(#fur)"/>
    <ellipse cx="70" cy="86" rx="18" ry="14" fill="url(#belly)"/>
    <circle cx="72" cy="48" r="24" fill="url(#fur)"/>
    <ellipse cx="56" cy="32" rx="8" ry="14" fill="url(#furDark)" transform="rotate(-5,56,32)"/>
    <ellipse cx="92" cy="30" rx="10" ry="16" fill="url(#furDark)" transform="rotate(20,92,30)"/>
    <ellipse cx="92" cy="32" rx="6" ry="10" fill="#c4b5fd" transform="rotate(20,92,32)"/>
    <!-- Eyes looking right -->
    <circle cx="65" cy="46" r="4" fill="#1e1e32"/>
    <circle cx="82" cy="46" r="5" fill="#1e1e32"/>
    <circle cx="67" cy="44" r="1.5" fill="white"/>
    <circle cx="84" cy="44" r="2" fill="white"/>
    <ellipse cx="74" cy="56" rx="4" ry="3" fill="#4c1d95"/>
    <path d="M70 59 Q74 63 78 59" stroke="#4c1d95" stroke-width="1.5" fill="none"/>
    <rect x="50" y="98" width="10" height="16" rx="5" fill="url(#fur)"/>
    <rect x="76" y="98" width="10" height="16" rx="5" fill="url(#fur)"/>
    <ellipse cx="55" cy="114" rx="7" ry="4" fill="url(#furDark)"/>
    <ellipse cx="81" cy="114" rx="7" ry="4" fill="url(#furDark)"/>
    <path d="M36 80 Q23 65 30 55" stroke="url(#fur)" stroke-width="6" fill="none" stroke-linecap="round"/>
  </g>

  <!-- Frame 3,0: Sit Front -->
  <g transform="translate(384,0)">
    <ellipse cx="64" cy="88" rx="30" ry="20" fill="url(#fur)"/>
    <ellipse cx="64" cy="90" rx="20" ry="12" fill="url(#belly)"/>
    <circle cx="64" cy="52" r="24" fill="url(#fur)"/>
    <ellipse cx="44" cy="34" rx="10" ry="16" fill="url(#furDark)" transform="rotate(-15,44,34)"/>
    <ellipse cx="84" cy="34" rx="10" ry="16" fill="url(#furDark)" transform="rotate(15,84,34)"/>
    <ellipse cx="44" cy="36" rx="6" ry="10" fill="#c4b5fd" transform="rotate(-15,44,36)"/>
    <ellipse cx="84" cy="36" rx="6" ry="10" fill="#c4b5fd" transform="rotate(15,84,36)"/>
    <circle cx="54" cy="50" r="5" fill="#1e1e32"/>
    <circle cx="74" cy="50" r="5" fill="#1e1e32"/>
    <circle cx="56" cy="48" r="2" fill="white"/>
    <circle cx="76" cy="48" r="2" fill="white"/>
    <ellipse cx="64" cy="60" rx="4" ry="3" fill="#4c1d95"/>
    <path d="M60 63 Q64 67 68 63" stroke="#4c1d95" stroke-width="1.5" fill="none"/>
    <!-- Sitting legs (front paws visible) -->
    <ellipse cx="48" cy="104" rx="10" ry="6" fill="url(#fur)"/>
    <ellipse cx="80" cy="104" rx="10" ry="6" fill="url(#fur)"/>
    <ellipse cx="48" cy="106" rx="7" ry="4" fill="url(#furDark)"/>
    <ellipse cx="80" cy="106" rx="7" ry="4" fill="url(#furDark)"/>
    <path d="M92 84 Q108 72 102 60" stroke="url(#fur)" stroke-width="6" fill="none" stroke-linecap="round"/>
  </g>

  <!-- Frame 4,0: Blink -->
  <g transform="translate(512,0)">
    <ellipse cx="64" cy="82" rx="28" ry="24" fill="url(#fur)"/>
    <ellipse cx="64" cy="86" rx="18" ry="14" fill="url(#belly)"/>
    <circle cx="64" cy="48" r="24" fill="url(#fur)"/>
    <ellipse cx="44" cy="30" rx="10" ry="16" fill="url(#furDark)" transform="rotate(-15,44,30)"/>
    <ellipse cx="84" cy="30" rx="10" ry="16" fill="url(#furDark)" transform="rotate(15,84,30)"/>
    <ellipse cx="44" cy="32" rx="6" ry="10" fill="#c4b5fd" transform="rotate(-15,44,32)"/>
    <ellipse cx="84" cy="32" rx="6" ry="10" fill="#c4b5fd" transform="rotate(15,84,32)"/>
    <!-- Closed eyes -->
    <path d="M49 46 Q54 50 59 46" stroke="#1e1e32" stroke-width="2" fill="none" stroke-linecap="round"/>
    <path d="M69 46 Q74 50 79 46" stroke="#1e1e32" stroke-width="2" fill="none" stroke-linecap="round"/>
    <ellipse cx="64" cy="56" rx="4" ry="3" fill="#4c1d95"/>
    <path d="M60 59 Q64 63 68 59" stroke="#4c1d95" stroke-width="1.5" fill="none"/>
    <rect x="46" y="98" width="10" height="16" rx="5" fill="url(#fur)"/>
    <rect x="72" y="98" width="10" height="16" rx="5" fill="url(#fur)"/>
    <ellipse cx="51" cy="114" rx="7" ry="4" fill="url(#furDark)"/>
    <ellipse cx="77" cy="114" rx="7" ry="4" fill="url(#furDark)"/>
    <path d="M92 80 Q105 65 98 55" stroke="url(#fur)" stroke-width="6" fill="none" stroke-linecap="round"/>
  </g>

  <!-- ═══ ROW 2: EMOTIONS ═══ -->

  <!-- Frame 0,1: Happy -->
  <g transform="translate(0,128)">
    <ellipse cx="64" cy="82" rx="28" ry="24" fill="url(#fur)"/>
    <ellipse cx="64" cy="86" rx="18" ry="14" fill="url(#belly)"/>
    <circle cx="64" cy="48" r="24" fill="url(#fur)"/>
    <ellipse cx="44" cy="28" rx="10" ry="16" fill="url(#furDark)" transform="rotate(-20,44,28)"/>
    <ellipse cx="84" cy="28" rx="10" ry="16" fill="url(#furDark)" transform="rotate(20,84,28)"/>
    <ellipse cx="44" cy="30" rx="6" ry="10" fill="#c4b5fd" transform="rotate(-20,44,30)"/>
    <ellipse cx="84" cy="30" rx="6" ry="10" fill="#c4b5fd" transform="rotate(20,84,30)"/>
    <!-- Happy eyes (curved up) -->
    <path d="M49 44 Q54 40 59 44" stroke="#1e1e32" stroke-width="2.5" fill="none" stroke-linecap="round"/>
    <path d="M69 44 Q74 40 79 44" stroke="#1e1e32" stroke-width="2.5" fill="none" stroke-linecap="round"/>
    <!-- Rosy cheeks -->
    <circle cx="46" cy="53" r="5" fill="#f9a8d4" opacity="0.4"/>
    <circle cx="82" cy="53" r="5" fill="#f9a8d4" opacity="0.4"/>
    <ellipse cx="64" cy="56" rx="4" ry="3" fill="#4c1d95"/>
    <!-- Big smile -->
    <path d="M55 58 Q64 68 73 58" stroke="#4c1d95" stroke-width="2" fill="none"/>
    <rect x="46" y="98" width="10" height="16" rx="5" fill="url(#fur)"/>
    <rect x="72" y="98" width="10" height="16" rx="5" fill="url(#fur)"/>
    <ellipse cx="51" cy="114" rx="7" ry="4" fill="url(#furDark)"/>
    <ellipse cx="77" cy="114" rx="7" ry="4" fill="url(#furDark)"/>
    <!-- Wagging tail (up) -->
    <path d="M92 78 Q110 55 100 42" stroke="url(#fur)" stroke-width="6" fill="none" stroke-linecap="round"/>
  </g>

  <!-- Frame 1,1: Excited -->
  <g transform="translate(128,128)">
    <!-- Bounced up slightly -->
    <ellipse cx="64" cy="78" rx="28" ry="24" fill="url(#fur)"/>
    <ellipse cx="64" cy="82" rx="18" ry="14" fill="url(#belly)"/>
    <circle cx="64" cy="44" r="24" fill="url(#fur)"/>
    <ellipse cx="44" cy="26" rx="10" ry="16" fill="url(#furDark)" transform="rotate(-25,44,26)"/>
    <ellipse cx="84" cy="26" rx="10" ry="16" fill="url(#furDark)" transform="rotate(25,84,26)"/>
    <ellipse cx="44" cy="28" rx="6" ry="10" fill="#c4b5fd" transform="rotate(-25,44,28)"/>
    <ellipse cx="84" cy="28" rx="6" ry="10" fill="#c4b5fd" transform="rotate(25,84,28)"/>
    <!-- Star eyes -->
    <text x="49" y="46" fill="#fbbf24" font-size="12" text-anchor="middle">★</text>
    <text x="79" y="46" fill="#fbbf24" font-size="12" text-anchor="middle">★</text>
    <circle cx="46" cy="51" r="5" fill="#f9a8d4" opacity="0.5"/>
    <circle cx="82" cy="51" r="5" fill="#f9a8d4" opacity="0.5"/>
    <ellipse cx="64" cy="52" rx="4" ry="3" fill="#4c1d95"/>
    <ellipse cx="64" cy="57" rx="8" ry="5" fill="#4c1d95"/>
    <ellipse cx="64" cy="56" rx="6" ry="3" fill="#c4b5fd"/>
    <rect x="46" y="98" width="10" height="14" rx="5" fill="url(#fur)"/>
    <rect x="72" y="98" width="10" height="14" rx="5" fill="url(#fur)"/>
    <ellipse cx="51" cy="112" rx="7" ry="4" fill="url(#furDark)"/>
    <ellipse cx="77" cy="112" rx="7" ry="4" fill="url(#furDark)"/>
    <path d="M92 74 Q115 48 104 35" stroke="url(#fur)" stroke-width="6" fill="none" stroke-linecap="round"/>
    <!-- Sparkles -->
    <text x="24" y="36" fill="#fbbf24" font-size="10">✦</text>
    <text x="100" y="30" fill="#22d3ee" font-size="8">✦</text>
    <text x="108" y="50" fill="#fbbf24" font-size="6">✦</text>
  </g>

  <!-- Frame 2,1: Mad -->
  <g transform="translate(256,128)">
    <ellipse cx="64" cy="82" rx="28" ry="24" fill="url(#fur)"/>
    <ellipse cx="64" cy="86" rx="18" ry="14" fill="url(#belly)"/>
    <circle cx="64" cy="48" r="24" fill="url(#fur)"/>
    <ellipse cx="44" cy="30" rx="10" ry="16" fill="url(#furDark)" transform="rotate(-5,44,30)"/>
    <ellipse cx="84" cy="30" rx="10" ry="16" fill="url(#furDark)" transform="rotate(5,84,30)"/>
    <ellipse cx="44" cy="32" rx="6" ry="10" fill="#c4b5fd" transform="rotate(-5,44,32)"/>
    <ellipse cx="84" cy="32" rx="6" ry="10" fill="#c4b5fd" transform="rotate(5,84,32)"/>
    <!-- Angry eyebrows -->
    <line x1="48" y1="38" x2="58" y2="41" stroke="#4c1d95" stroke-width="2.5" stroke-linecap="round"/>
    <line x1="80" y1="38" x2="70" y2="41" stroke="#4c1d95" stroke-width="2.5" stroke-linecap="round"/>
    <circle cx="54" cy="47" r="4.5" fill="#1e1e32"/>
    <circle cx="74" cy="47" r="4.5" fill="#1e1e32"/>
    <circle cx="55.5" cy="45.5" r="1.5" fill="white"/>
    <circle cx="75.5" cy="45.5" r="1.5" fill="white"/>
    <ellipse cx="64" cy="56" rx="4" ry="3" fill="#4c1d95"/>
    <!-- Pouty mouth -->
    <path d="M57 62 Q64 58 71 62" stroke="#4c1d95" stroke-width="2" fill="none"/>
    <!-- Cheeks flushed -->
    <circle cx="46" cy="54" r="5" fill="#f87171" opacity="0.3"/>
    <circle cx="82" cy="54" r="5" fill="#f87171" opacity="0.3"/>
    <rect x="46" y="98" width="10" height="16" rx="5" fill="url(#fur)"/>
    <rect x="72" y="98" width="10" height="16" rx="5" fill="url(#fur)"/>
    <ellipse cx="51" cy="114" rx="7" ry="4" fill="url(#furDark)"/>
    <ellipse cx="77" cy="114" rx="7" ry="4" fill="url(#furDark)"/>
    <!-- Stiff tail (down) -->
    <path d="M92 84 Q100 90 96 100" stroke="url(#fur)" stroke-width="6" fill="none" stroke-linecap="round"/>
    <!-- Steam puffs -->
    <text x="28" y="32" fill="#f87171" font-size="10" opacity="0.6">💢</text>
  </g>

  <!-- Frame 3,1: Sad -->
  <g transform="translate(384,128)">
    <ellipse cx="64" cy="84" rx="28" ry="24" fill="url(#fur)"/>
    <ellipse cx="64" cy="88" rx="18" ry="14" fill="url(#belly)"/>
    <circle cx="64" cy="50" r="24" fill="url(#fur)"/>
    <!-- Droopy ears -->
    <ellipse cx="42" cy="36" rx="10" ry="16" fill="url(#furDark)" transform="rotate(-35,42,36)"/>
    <ellipse cx="86" cy="36" rx="10" ry="16" fill="url(#furDark)" transform="rotate(35,86,36)"/>
    <ellipse cx="42" cy="38" rx="6" ry="10" fill="#c4b5fd" transform="rotate(-35,42,38)"/>
    <ellipse cx="86" cy="38" rx="6" ry="10" fill="#c4b5fd" transform="rotate(35,86,38)"/>
    <!-- Sad eyes -->
    <circle cx="54" cy="48" r="5" fill="#1e1e32"/>
    <circle cx="74" cy="48" r="5" fill="#1e1e32"/>
    <circle cx="56" cy="46" r="2" fill="white"/>
    <circle cx="76" cy="46" r="2" fill="white"/>
    <!-- Sad eyebrows -->
    <line x1="48" y1="42" x2="58" y2="40" stroke="#4c1d95" stroke-width="2" stroke-linecap="round"/>
    <line x1="80" y1="42" x2="70" y2="40" stroke="#4c1d95" stroke-width="2" stroke-linecap="round"/>
    <!-- Tear -->
    <circle cx="80" cy="54" r="2" fill="#93c5fd" opacity="0.7"/>
    <ellipse cx="64" cy="58" rx="4" ry="3" fill="#4c1d95"/>
    <path d="M58 62 Q64 58 70 62" stroke="#4c1d95" stroke-width="1.5" fill="none"/>
    <rect x="46" y="100" width="10" height="16" rx="5" fill="url(#fur)"/>
    <rect x="72" y="100" width="10" height="16" rx="5" fill="url(#fur)"/>
    <ellipse cx="51" cy="116" rx="7" ry="4" fill="url(#furDark)"/>
    <ellipse cx="77" cy="116" rx="7" ry="4" fill="url(#furDark)"/>
    <path d="M92 82 Q100 92 94 100" stroke="url(#fur)" stroke-width="6" fill="none" stroke-linecap="round"/>
  </g>

  <!-- Frame 4,1: Confused -->
  <g transform="translate(512,128)">
    <ellipse cx="64" cy="82" rx="28" ry="24" fill="url(#fur)"/>
    <ellipse cx="64" cy="86" rx="18" ry="14" fill="url(#belly)"/>
    <circle cx="64" cy="48" r="24" fill="url(#fur)"/>
    <!-- One ear up one down -->
    <ellipse cx="44" cy="30" rx="10" ry="16" fill="url(#furDark)" transform="rotate(-15,44,30)"/>
    <ellipse cx="86" cy="36" rx="10" ry="16" fill="url(#furDark)" transform="rotate(30,86,36)"/>
    <ellipse cx="44" cy="32" rx="6" ry="10" fill="#c4b5fd" transform="rotate(-15,44,32)"/>
    <ellipse cx="86" cy="38" rx="6" ry="10" fill="#c4b5fd" transform="rotate(30,86,38)"/>
    <!-- Confused eyes (different sizes) -->
    <circle cx="54" cy="46" r="6" fill="#1e1e32"/>
    <circle cx="74" cy="46" r="4" fill="#1e1e32"/>
    <circle cx="56" cy="44" r="2" fill="white"/>
    <circle cx="75.5" cy="44.5" r="1.5" fill="white"/>
    <ellipse cx="64" cy="56" rx="4" ry="3" fill="#4c1d95"/>
    <!-- Wavy mouth -->
    <path d="M57 60 Q60 63 64 60 Q68 57 71 60" stroke="#4c1d95" stroke-width="1.5" fill="none"/>
    <rect x="46" y="98" width="10" height="16" rx="5" fill="url(#fur)"/>
    <rect x="72" y="98" width="10" height="16" rx="5" fill="url(#fur)"/>
    <ellipse cx="51" cy="114" rx="7" ry="4" fill="url(#furDark)"/>
    <ellipse cx="77" cy="114" rx="7" ry="4" fill="url(#furDark)"/>
    <path d="M92 80 Q105 65 98 55" stroke="url(#fur)" stroke-width="6" fill="none" stroke-linecap="round"/>
    <!-- Question mark -->
    <text x="96" y="32" fill="#fbbf24" font-family="Inter, sans-serif" font-size="16" font-weight="700">?</text>
  </g>

  <!-- ═══ ROW 3: ACTIONS ═══ -->

  <!-- Frame 0,2: Bark -->
  <g transform="translate(0,256)">
    <ellipse cx="64" cy="82" rx="28" ry="24" fill="url(#fur)"/>
    <ellipse cx="64" cy="86" rx="18" ry="14" fill="url(#belly)"/>
    <circle cx="64" cy="48" r="24" fill="url(#fur)"/>
    <ellipse cx="44" cy="28" rx="10" ry="16" fill="url(#furDark)" transform="rotate(-20,44,28)"/>
    <ellipse cx="84" cy="28" rx="10" ry="16" fill="url(#furDark)" transform="rotate(20,84,28)"/>
    <ellipse cx="44" cy="30" rx="6" ry="10" fill="#c4b5fd" transform="rotate(-20,44,30)"/>
    <ellipse cx="84" cy="30" rx="6" ry="10" fill="#c4b5fd" transform="rotate(20,84,30)"/>
    <circle cx="54" cy="44" r="5" fill="#1e1e32"/>
    <circle cx="74" cy="44" r="5" fill="#1e1e32"/>
    <circle cx="56" cy="42" r="2" fill="white"/>
    <circle cx="76" cy="42" r="2" fill="white"/>
    <ellipse cx="64" cy="54" rx="4" ry="3" fill="#4c1d95"/>
    <!-- Open mouth (barking) -->
    <ellipse cx="64" cy="62" rx="10" ry="7" fill="#4c1d95"/>
    <ellipse cx="64" cy="60" rx="8" ry="4" fill="#c4b5fd"/>
    <!-- Sound waves -->
    <path d="M88 42 Q96 42 96 36" stroke="#a78bfa" stroke-width="1.5" fill="none" opacity="0.6"/>
    <path d="M92 48 Q102 48 102 40" stroke="#a78bfa" stroke-width="1.5" fill="none" opacity="0.4"/>
    <path d="M94 54 Q106 54 106 44" stroke="#a78bfa" stroke-width="1.5" fill="none" opacity="0.2"/>
    <rect x="46" y="98" width="10" height="16" rx="5" fill="url(#fur)"/>
    <rect x="72" y="98" width="10" height="16" rx="5" fill="url(#fur)"/>
    <ellipse cx="51" cy="114" rx="7" ry="4" fill="url(#furDark)"/>
    <ellipse cx="77" cy="114" rx="7" ry="4" fill="url(#furDark)"/>
    <path d="M92 78 Q110 55 100 42" stroke="url(#fur)" stroke-width="6" fill="none" stroke-linecap="round"/>
  </g>

  <!-- Frame 1,2: Alert (notification) -->
  <g transform="translate(128,256)">
    <ellipse cx="64" cy="82" rx="28" ry="24" fill="url(#fur)"/>
    <ellipse cx="64" cy="86" rx="18" ry="14" fill="url(#belly)"/>
    <circle cx="64" cy="48" r="24" fill="url(#fur)"/>
    <!-- Perked ears -->
    <ellipse cx="44" cy="26" rx="10" ry="18" fill="url(#furDark)" transform="rotate(-10,44,26)"/>
    <ellipse cx="84" cy="26" rx="10" ry="18" fill="url(#furDark)" transform="rotate(10,84,26)"/>
    <ellipse cx="44" cy="28" rx="6" ry="12" fill="#c4b5fd" transform="rotate(-10,44,28)"/>
    <ellipse cx="84" cy="28" rx="6" ry="12" fill="#c4b5fd" transform="rotate(10,84,28)"/>
    <!-- Wide eyes -->
    <circle cx="54" cy="46" r="6" fill="#1e1e32"/>
    <circle cx="74" cy="46" r="6" fill="#1e1e32"/>
    <circle cx="56" cy="43" r="2.5" fill="white"/>
    <circle cx="76" cy="43" r="2.5" fill="white"/>
    <ellipse cx="64" cy="56" rx="4" ry="3" fill="#4c1d95"/>
    <path d="M60 59 Q64 62 68 59" stroke="#4c1d95" stroke-width="1.5" fill="none"/>
    <!-- Alert bubble -->
    <circle cx="100" cy="26" r="12" fill="#fbbf24"/>
    <text x="100" y="31" fill="#4c1d95" font-family="Inter, sans-serif" font-size="14" font-weight="700" text-anchor="middle">!</text>
    <rect x="46" y="98" width="10" height="16" rx="5" fill="url(#fur)"/>
    <rect x="72" y="98" width="10" height="16" rx="5" fill="url(#fur)"/>
    <ellipse cx="51" cy="114" rx="7" ry="4" fill="url(#furDark)"/>
    <ellipse cx="77" cy="114" rx="7" ry="4" fill="url(#furDark)"/>
    <path d="M92 78 Q112 58 104 45" stroke="url(#fur)" stroke-width="6" fill="none" stroke-linecap="round"/>
  </g>

  <!-- Frame 2,2: Success -->
  <g transform="translate(256,256)">
    <ellipse cx="64" cy="82" rx="28" ry="24" fill="url(#fur)"/>
    <ellipse cx="64" cy="86" rx="18" ry="14" fill="url(#belly)"/>
    <circle cx="64" cy="48" r="24" fill="url(#fur)"/>
    <ellipse cx="44" cy="28" rx="10" ry="16" fill="url(#furDark)" transform="rotate(-20,44,28)"/>
    <ellipse cx="84" cy="28" rx="10" ry="16" fill="url(#furDark)" transform="rotate(20,84,28)"/>
    <ellipse cx="44" cy="30" rx="6" ry="10" fill="#c4b5fd" transform="rotate(-20,44,30)"/>
    <ellipse cx="84" cy="30" rx="6" ry="10" fill="#c4b5fd" transform="rotate(20,84,30)"/>
    <!-- Happy squint eyes -->
    <path d="M49 44 Q54 40 59 44" stroke="#1e1e32" stroke-width="2.5" fill="none" stroke-linecap="round"/>
    <path d="M69 44 Q74 40 79 44" stroke="#1e1e32" stroke-width="2.5" fill="none" stroke-linecap="round"/>
    <circle cx="46" cy="53" r="5" fill="#f9a8d4" opacity="0.4"/>
    <circle cx="82" cy="53" r="5" fill="#f9a8d4" opacity="0.4"/>
    <ellipse cx="64" cy="56" rx="4" ry="3" fill="#4c1d95"/>
    <path d="M55 58 Q64 68 73 58" stroke="#4c1d95" stroke-width="2" fill="none"/>
    <!-- Checkmark bubble -->
    <circle cx="100" cy="26" r="12" fill="#34d399"/>
    <path d="M93 26 L98 31 L107 22" stroke="white" stroke-width="2.5" fill="none" stroke-linecap="round"/>
    <rect x="46" y="98" width="10" height="16" rx="5" fill="url(#fur)"/>
    <rect x="72" y="98" width="10" height="16" rx="5" fill="url(#fur)"/>
    <ellipse cx="51" cy="114" rx="7" ry="4" fill="url(#furDark)"/>
    <ellipse cx="77" cy="114" rx="7" ry="4" fill="url(#furDark)"/>
    <path d="M92 76 Q112 50 102 38" stroke="url(#fur)" stroke-width="6" fill="none" stroke-linecap="round"/>
  </g>

  <!-- Frame 3,2: Error -->
  <g transform="translate(384,256)">
    <ellipse cx="64" cy="82" rx="28" ry="24" fill="url(#fur)"/>
    <ellipse cx="64" cy="86" rx="18" ry="14" fill="url(#belly)"/>
    <circle cx="64" cy="48" r="24" fill="url(#fur)"/>
    <ellipse cx="44" cy="32" rx="10" ry="16" fill="url(#furDark)" transform="rotate(-30,44,32)"/>
    <ellipse cx="84" cy="32" rx="10" ry="16" fill="url(#furDark)" transform="rotate(30,84,32)"/>
    <ellipse cx="44" cy="34" rx="6" ry="10" fill="#c4b5fd" transform="rotate(-30,44,34)"/>
    <ellipse cx="84" cy="34" rx="6" ry="10" fill="#c4b5fd" transform="rotate(30,84,34)"/>
    <!-- Worried eyes -->
    <circle cx="54" cy="46" r="5" fill="#1e1e32"/>
    <circle cx="74" cy="46" r="5" fill="#1e1e32"/>
    <circle cx="55" cy="44" r="2" fill="white"/>
    <circle cx="75" cy="44" r="2" fill="white"/>
    <!-- Sad brows -->
    <line x1="48" y1="39" x2="58" y2="37" stroke="#4c1d95" stroke-width="2" stroke-linecap="round"/>
    <line x1="80" y1="39" x2="70" y2="37" stroke="#4c1d95" stroke-width="2" stroke-linecap="round"/>
    <ellipse cx="64" cy="56" rx="4" ry="3" fill="#4c1d95"/>
    <path d="M58 62 Q64 58 70 62" stroke="#4c1d95" stroke-width="1.5" fill="none"/>
    <!-- Error bubble -->
    <circle cx="100" cy="26" r="12" fill="#f87171"/>
    <text x="100" y="32" fill="white" font-family="Inter, sans-serif" font-size="16" font-weight="700" text-anchor="middle">✕</text>
    <rect x="46" y="98" width="10" height="16" rx="5" fill="url(#fur)"/>
    <rect x="72" y="98" width="10" height="16" rx="5" fill="url(#fur)"/>
    <ellipse cx="51" cy="114" rx="7" ry="4" fill="url(#furDark)"/>
    <ellipse cx="77" cy="114" rx="7" ry="4" fill="url(#furDark)"/>
    <path d="M92 84 Q100 92 94 100" stroke="url(#fur)" stroke-width="6" fill="none" stroke-linecap="round"/>
  </g>

  <!-- Frame 4,2: Thinking -->
  <g transform="translate(512,256)">
    <ellipse cx="64" cy="82" rx="28" ry="24" fill="url(#fur)"/>
    <ellipse cx="64" cy="86" rx="18" ry="14" fill="url(#belly)"/>
    <circle cx="64" cy="48" r="24" fill="url(#fur)"/>
    <ellipse cx="44" cy="30" rx="10" ry="16" fill="url(#furDark)" transform="rotate(-15,44,30)"/>
    <ellipse cx="84" cy="30" rx="10" ry="16" fill="url(#furDark)" transform="rotate(15,84,30)"/>
    <ellipse cx="44" cy="32" rx="6" ry="10" fill="#c4b5fd" transform="rotate(-15,44,32)"/>
    <ellipse cx="84" cy="32" rx="6" ry="10" fill="#c4b5fd" transform="rotate(15,84,32)"/>
    <!-- Looking up eyes -->
    <circle cx="54" cy="44" r="5" fill="#1e1e32"/>
    <circle cx="74" cy="44" r="5" fill="#1e1e32"/>
    <circle cx="55" cy="41" r="2" fill="white"/>
    <circle cx="75" cy="41" r="2" fill="white"/>
    <ellipse cx="64" cy="56" rx="4" ry="3" fill="#4c1d95"/>
    <path d="M60 60 Q64 63 68 60" stroke="#4c1d95" stroke-width="1.5" fill="none"/>
    <!-- Thought bubbles -->
    <circle cx="96" cy="34" r="4" fill="#a8a4b8" opacity="0.4"/>
    <circle cx="104" cy="24" r="6" fill="#a8a4b8" opacity="0.4"/>
    <circle cx="114" cy="14" r="8" fill="#a8a4b8" opacity="0.4"/>
    <text x="114" y="18" fill="#6b6880" font-size="10" text-anchor="middle">...</text>
    <rect x="46" y="98" width="10" height="16" rx="5" fill="url(#fur)"/>
    <rect x="72" y="98" width="10" height="16" rx="5" fill="url(#fur)"/>
    <ellipse cx="51" cy="114" rx="7" ry="4" fill="url(#furDark)"/>
    <ellipse cx="77" cy="114" rx="7" ry="4" fill="url(#furDark)"/>
    <path d="M92 80 Q105 65 98 55" stroke="url(#fur)" stroke-width="6" fill="none" stroke-linecap="round"/>
  </g>

  <!-- ═══ ROW 4: MOVEMENT ═══ -->

  <!-- Frame 0,3: Walk Left 1 -->
  <g transform="translate(0,384)">
    <ellipse cx="60" cy="80" rx="28" ry="22" fill="url(#fur)"/>
    <ellipse cx="58" cy="84" rx="18" ry="12" fill="url(#belly)"/>
    <circle cx="54" cy="48" r="22" fill="url(#fur)"/>
    <ellipse cx="36" cy="30" rx="9" ry="15" fill="url(#furDark)" transform="rotate(-20,36,30)"/>
    <ellipse cx="70" cy="32" rx="7" ry="13" fill="url(#furDark)" transform="rotate(5,70,32)"/>
    <ellipse cx="36" cy="32" rx="5" ry="9" fill="#c4b5fd" transform="rotate(-20,36,32)"/>
    <circle cx="46" cy="46" r="4" fill="#1e1e32"/>
    <circle cx="62" cy="46" r="3.5" fill="#1e1e32"/>
    <circle cx="44" cy="44" r="1.5" fill="white"/>
    <circle cx="60.5" cy="44.5" r="1.5" fill="white"/>
    <ellipse cx="52" cy="54" rx="3.5" ry="2.5" fill="#4c1d95"/>
    <path d="M48 57 Q52 60 56 57" stroke="#4c1d95" stroke-width="1.5" fill="none"/>
    <!-- Walking legs (step 1: left forward, right back) -->
    <rect x="36" y="94" width="9" height="18" rx="4.5" fill="url(#fur)" transform="rotate(15,40,94)"/>
    <rect x="66" y="94" width="9" height="18" rx="4.5" fill="url(#fur)" transform="rotate(-10,70,94)"/>
    <ellipse cx="43" cy="114" rx="6" ry="3.5" fill="url(#furDark)"/>
    <ellipse cx="68" cy="112" rx="6" ry="3.5" fill="url(#furDark)"/>
    <path d="M86 78 Q99 63 93 53" stroke="url(#fur)" stroke-width="5" fill="none" stroke-linecap="round"/>
  </g>

  <!-- Frame 1,3: Walk Left 2 -->
  <g transform="translate(128,384)">
    <ellipse cx="56" cy="80" rx="28" ry="22" fill="url(#fur)"/>
    <ellipse cx="54" cy="84" rx="18" ry="12" fill="url(#belly)"/>
    <circle cx="50" cy="48" r="22" fill="url(#fur)"/>
    <ellipse cx="32" cy="30" rx="9" ry="15" fill="url(#furDark)" transform="rotate(-20,32,30)"/>
    <ellipse cx="66" cy="32" rx="7" ry="13" fill="url(#furDark)" transform="rotate(5,66,32)"/>
    <ellipse cx="32" cy="32" rx="5" ry="9" fill="#c4b5fd" transform="rotate(-20,32,32)"/>
    <circle cx="42" cy="46" r="4" fill="#1e1e32"/>
    <circle cx="58" cy="46" r="3.5" fill="#1e1e32"/>
    <circle cx="40" cy="44" r="1.5" fill="white"/>
    <circle cx="56.5" cy="44.5" r="1.5" fill="white"/>
    <ellipse cx="48" cy="54" rx="3.5" ry="2.5" fill="#4c1d95"/>
    <path d="M44 57 Q48 60 52 57" stroke="#4c1d95" stroke-width="1.5" fill="none"/>
    <!-- Walking legs (step 2: right forward, left back) -->
    <rect x="38" y="94" width="9" height="18" rx="4.5" fill="url(#fur)" transform="rotate(-10,42,94)"/>
    <rect x="64" y="94" width="9" height="18" rx="4.5" fill="url(#fur)" transform="rotate(15,68,94)"/>
    <ellipse cx="40" cy="112" rx="6" ry="3.5" fill="url(#furDark)"/>
    <ellipse cx="72" cy="114" rx="6" ry="3.5" fill="url(#furDark)"/>
    <path d="M82 78 Q95 63 89 53" stroke="url(#fur)" stroke-width="5" fill="none" stroke-linecap="round"/>
  </g>

  <!-- Frame 2,3: Walk Right 1 -->
  <g transform="translate(256,384)">
    <ellipse cx="68" cy="80" rx="28" ry="22" fill="url(#fur)"/>
    <ellipse cx="70" cy="84" rx="18" ry="12" fill="url(#belly)"/>
    <circle cx="74" cy="48" r="22" fill="url(#fur)"/>
    <ellipse cx="58" cy="32" rx="7" ry="13" fill="url(#furDark)" transform="rotate(-5,58,32)"/>
    <ellipse cx="92" cy="30" rx="9" ry="15" fill="url(#furDark)" transform="rotate(20,92,30)"/>
    <ellipse cx="92" cy="32" rx="5" ry="9" fill="#c4b5fd" transform="rotate(20,92,32)"/>
    <circle cx="66" cy="46" r="3.5" fill="#1e1e32"/>
    <circle cx="82" cy="46" r="4" fill="#1e1e32"/>
    <circle cx="67.5" cy="44.5" r="1.5" fill="white"/>
    <circle cx="84" cy="44" r="1.5" fill="white"/>
    <ellipse cx="76" cy="54" rx="3.5" ry="2.5" fill="#4c1d95"/>
    <path d="M72 57 Q76 60 80 57" stroke="#4c1d95" stroke-width="1.5" fill="none"/>
    <rect x="54" y="94" width="9" height="18" rx="4.5" fill="url(#fur)" transform="rotate(10,58,94)"/>
    <rect x="80" y="94" width="9" height="18" rx="4.5" fill="url(#fur)" transform="rotate(-15,84,94)"/>
    <ellipse cx="60" cy="112" rx="6" ry="3.5" fill="url(#furDark)"/>
    <ellipse cx="86" cy="114" rx="6" ry="3.5" fill="url(#furDark)"/>
    <path d="M40" stroke="url(#fur)" stroke-width="5" fill="none" stroke-linecap="round" d="M42 78 Q29 63 35 53"/>
  </g>

  <!-- Frame 3,3: Walk Right 2 -->
  <g transform="translate(384,384)">
    <ellipse cx="72" cy="80" rx="28" ry="22" fill="url(#fur)"/>
    <ellipse cx="74" cy="84" rx="18" ry="12" fill="url(#belly)"/>
    <circle cx="78" cy="48" r="22" fill="url(#fur)"/>
    <ellipse cx="62" cy="32" rx="7" ry="13" fill="url(#furDark)" transform="rotate(-5,62,32)"/>
    <ellipse cx="96" cy="30" rx="9" ry="15" fill="url(#furDark)" transform="rotate(20,96,30)"/>
    <ellipse cx="96" cy="32" rx="5" ry="9" fill="#c4b5fd" transform="rotate(20,96,32)"/>
    <circle cx="70" cy="46" r="3.5" fill="#1e1e32"/>
    <circle cx="86" cy="46" r="4" fill="#1e1e32"/>
    <circle cx="71.5" cy="44.5" r="1.5" fill="white"/>
    <circle cx="88" cy="44" r="1.5" fill="white"/>
    <ellipse cx="80" cy="54" rx="3.5" ry="2.5" fill="#4c1d95"/>
    <path d="M76 57 Q80 60 84 57" stroke="#4c1d95" stroke-width="1.5" fill="none"/>
    <rect x="58" y="94" width="9" height="18" rx="4.5" fill="url(#fur)" transform="rotate(-15,62,94)"/>
    <rect x="84" y="94" width="9" height="18" rx="4.5" fill="url(#fur)" transform="rotate(10,88,94)"/>
    <ellipse cx="56" cy="114" rx="6" ry="3.5" fill="url(#furDark)"/>
    <ellipse cx="90" cy="112" rx="6" ry="3.5" fill="url(#furDark)"/>
    <path d="M46 78 Q33 63 39 53" stroke="url(#fur)" stroke-width="5" fill="none" stroke-linecap="round"/>
  </g>

  <!-- Frame 4,3: Jump -->
  <g transform="translate(512,384)">
    <!-- Shadow on ground -->
    <ellipse cx="64" cy="116" rx="20" ry="4" fill="rgba(0,0,0,0.2)"/>
    <!-- Body lifted up -->
    <ellipse cx="64" cy="62" rx="28" ry="22" fill="url(#fur)"/>
    <ellipse cx="64" cy="66" rx="18" ry="12" fill="url(#belly)"/>
    <circle cx="64" cy="30" r="22" fill="url(#fur)"/>
    <ellipse cx="46" cy="14" rx="9" ry="15" fill="url(#furDark)" transform="rotate(-20,46,14)"/>
    <ellipse cx="82" cy="14" rx="9" ry="15" fill="url(#furDark)" transform="rotate(20,82,14)"/>
    <ellipse cx="46" cy="16" rx="5" ry="9" fill="#c4b5fd" transform="rotate(-20,46,16)"/>
    <ellipse cx="82" cy="16" rx="5" ry="9" fill="#c4b5fd" transform="rotate(20,82,16)"/>
    <!-- Excited eyes -->
    <path d="M49 28 Q54 24 59 28" stroke="#1e1e32" stroke-width="2.5" fill="none" stroke-linecap="round"/>
    <path d="M69 28 Q74 24 79 28" stroke="#1e1e32" stroke-width="2.5" fill="none" stroke-linecap="round"/>
    <circle cx="46" cy="35" r="4" fill="#f9a8d4" opacity="0.4"/>
    <circle cx="82" cy="35" r="4" fill="#f9a8d4" opacity="0.4"/>
    <ellipse cx="64" cy="38" rx="3.5" ry="2.5" fill="#4c1d95"/>
    <path d="M56 40 Q64 48 72 40" stroke="#4c1d95" stroke-width="2" fill="none"/>
    <!-- Tucked legs -->
    <rect x="44" y="78" width="9" height="12" rx="4.5" fill="url(#fur)" transform="rotate(-15,48,78)"/>
    <rect x="72" y="78" width="9" height="12" rx="4.5" fill="url(#fur)" transform="rotate(15,76,78)"/>
    <ellipse cx="42" cy="90" rx="6" ry="3.5" fill="url(#furDark)"/>
    <ellipse cx="82" cy="90" rx="6" ry="3.5" fill="url(#furDark)"/>
    <path d="M90 58 Q108 38 100 26" stroke="url(#fur)" stroke-width="5" fill="none" stroke-linecap="round"/>
  </g>

  <!-- ═══ ROW 5: SPECIAL ═══ -->

  <!-- Frame 0,4: Sleep -->
  <g transform="translate(0,512)">
    <!-- Curled up body -->
    <ellipse cx="64" cy="90" rx="34" ry="22" fill="url(#fur)"/>
    <ellipse cx="64" cy="92" rx="24" ry="14" fill="url(#belly)"/>
    <circle cx="52" cy="72" r="20" fill="url(#fur)"/>
    <!-- Droopy ears flat -->
    <ellipse cx="36" cy="60" rx="8" ry="14" fill="url(#furDark)" transform="rotate(-40,36,60)"/>
    <ellipse cx="68" cy="62" rx="7" ry="12" fill="url(#furDark)" transform="rotate(30,68,62)"/>
    <ellipse cx="36" cy="62" rx="5" ry="9" fill="#c4b5fd" transform="rotate(-40,36,62)"/>
    <!-- Sleeping eyes -->
    <path d="M42 70 Q47 74 52 70" stroke="#1e1e32" stroke-width="2" fill="none" stroke-linecap="round"/>
    <path d="M55 70 Q60 74 65 70" stroke="#1e1e32" stroke-width="2" fill="none" stroke-linecap="round"/>
    <ellipse cx="52" cy="78" rx="3" ry="2" fill="#4c1d95"/>
    <!-- Zzz -->
    <text x="78" y="54" fill="#a78bfa" font-family="Inter, sans-serif" font-size="10" font-weight="700" opacity="0.5">z</text>
    <text x="88" y="44" fill="#a78bfa" font-family="Inter, sans-serif" font-size="13" font-weight="700" opacity="0.4">z</text>
    <text x="100" y="32" fill="#a78bfa" font-family="Inter, sans-serif" font-size="16" font-weight="700" opacity="0.3">z</text>
    <!-- Tail curled around -->
    <path d="M92 90 Q108 80 104 68 Q100 60 88 65" stroke="url(#fur)" stroke-width="6" fill="none" stroke-linecap="round"/>
    <!-- Paws tucked -->
    <ellipse cx="40" cy="102" rx="8" ry="4" fill="url(#furDark)"/>
    <ellipse cx="68" cy="102" rx="8" ry="4" fill="url(#furDark)"/>
  </g>

  <!-- Frame 1,4: Wag 1 (tail right) -->
  <g transform="translate(128,512)">
    <ellipse cx="64" cy="82" rx="28" ry="24" fill="url(#fur)"/>
    <ellipse cx="64" cy="86" rx="18" ry="14" fill="url(#belly)"/>
    <circle cx="64" cy="48" r="24" fill="url(#fur)"/>
    <ellipse cx="44" cy="30" rx="10" ry="16" fill="url(#furDark)" transform="rotate(-15,44,30)"/>
    <ellipse cx="84" cy="30" rx="10" ry="16" fill="url(#furDark)" transform="rotate(15,84,30)"/>
    <ellipse cx="44" cy="32" rx="6" ry="10" fill="#c4b5fd" transform="rotate(-15,44,32)"/>
    <ellipse cx="84" cy="32" rx="6" ry="10" fill="#c4b5fd" transform="rotate(15,84,32)"/>
    <circle cx="54" cy="46" r="5" fill="#1e1e32"/>
    <circle cx="74" cy="46" r="5" fill="#1e1e32"/>
    <circle cx="56" cy="44" r="2" fill="white"/>
    <circle cx="76" cy="44" r="2" fill="white"/>
    <ellipse cx="64" cy="56" rx="4" ry="3" fill="#4c1d95"/>
    <path d="M60 59 Q64 63 68 59" stroke="#4c1d95" stroke-width="1.5" fill="none"/>
    <rect x="46" y="98" width="10" height="16" rx="5" fill="url(#fur)"/>
    <rect x="72" y="98" width="10" height="16" rx="5" fill="url(#fur)"/>
    <ellipse cx="51" cy="114" rx="7" ry="4" fill="url(#furDark)"/>
    <ellipse cx="77" cy="114" rx="7" ry="4" fill="url(#furDark)"/>
    <!-- Tail wagging right -->
    <path d="M92 78 Q112 58 108 48" stroke="url(#fur)" stroke-width="6" fill="none" stroke-linecap="round"/>
  </g>

  <!-- Frame 2,4: Wag 2 (tail left) -->
  <g transform="translate(256,512)">
    <ellipse cx="64" cy="82" rx="28" ry="24" fill="url(#fur)"/>
    <ellipse cx="64" cy="86" rx="18" ry="14" fill="url(#belly)"/>
    <circle cx="64" cy="48" r="24" fill="url(#fur)"/>
    <ellipse cx="44" cy="30" rx="10" ry="16" fill="url(#furDark)" transform="rotate(-15,44,30)"/>
    <ellipse cx="84" cy="30" rx="10" ry="16" fill="url(#furDark)" transform="rotate(15,84,30)"/>
    <ellipse cx="44" cy="32" rx="6" ry="10" fill="#c4b5fd" transform="rotate(-15,44,32)"/>
    <ellipse cx="84" cy="32" rx="6" ry="10" fill="#c4b5fd" transform="rotate(15,84,32)"/>
    <circle cx="54" cy="46" r="5" fill="#1e1e32"/>
    <circle cx="74" cy="46" r="5" fill="#1e1e32"/>
    <circle cx="56" cy="44" r="2" fill="white"/>
    <circle cx="76" cy="44" r="2" fill="white"/>
    <ellipse cx="64" cy="56" rx="4" ry="3" fill="#4c1d95"/>
    <path d="M60 59 Q64 63 68 59" stroke="#4c1d95" stroke-width="1.5" fill="none"/>
    <rect x="46" y="98" width="10" height="16" rx="5" fill="url(#fur)"/>
    <rect x="72" y="98" width="10" height="16" rx="5" fill="url(#fur)"/>
    <ellipse cx="51" cy="114" rx="7" ry="4" fill="url(#furDark)"/>
    <ellipse cx="77" cy="114" rx="7" ry="4" fill="url(#furDark)"/>
    <!-- Tail wagging left -->
    <path d="M92 78 Q98 62 88 52" stroke="url(#fur)" stroke-width="6" fill="none" stroke-linecap="round"/>
  </g>

  <!-- Frame 3,4: Notification (holding letter) -->
  <g transform="translate(384,512)">
    <ellipse cx="64" cy="82" rx="28" ry="24" fill="url(#fur)"/>
    <ellipse cx="64" cy="86" rx="18" ry="14" fill="url(#belly)"/>
    <circle cx="64" cy="48" r="24" fill="url(#fur)"/>
    <ellipse cx="44" cy="26" rx="10" ry="18" fill="url(#furDark)" transform="rotate(-10,44,26)"/>
    <ellipse cx="84" cy="26" rx="10" ry="18" fill="url(#furDark)" transform="rotate(10,84,26)"/>
    <ellipse cx="44" cy="28" rx="6" ry="12" fill="#c4b5fd" transform="rotate(-10,44,28)"/>
    <ellipse cx="84" cy="28" rx="6" ry="12" fill="#c4b5fd" transform="rotate(10,84,28)"/>
    <circle cx="54" cy="46" r="5" fill="#1e1e32"/>
    <circle cx="74" cy="46" r="5" fill="#1e1e32"/>
    <circle cx="56" cy="44" r="2.5" fill="white"/>
    <circle cx="76" cy="44" r="2.5" fill="white"/>
    <ellipse cx="64" cy="56" rx="4" ry="3" fill="#4c1d95"/>
    <path d="M57 59 Q64 66 71 59" stroke="#4c1d95" stroke-width="1.5" fill="none"/>
    <!-- Paw holding up a notification -->
    <rect x="36" y="88" width="9" height="18" rx="4.5" fill="url(#fur)" transform="rotate(30,40,88)"/>
    <rect x="72" y="98" width="10" height="16" rx="5" fill="url(#fur)"/>
    <ellipse cx="77" cy="114" rx="7" ry="4" fill="url(#furDark)"/>
    <!-- Notification card -->
    <rect x="12" y="72" width="36" height="26" rx="4" fill="#13131f" stroke="#7c3aed" stroke-width="1.5"/>
    <rect x="16" y="78" width="18" height="3" rx="1.5" fill="#a78bfa"/>
    <rect x="16" y="84" width="28" height="2" rx="1" fill="#6b6880"/>
    <rect x="16" y="89" width="22" height="2" rx="1" fill="#6b6880"/>
    <!-- Notification dot -->
    <circle cx="46" cy="72" r="5" fill="#f87171"/>
    <text x="46" y="75" fill="white" font-size="7" font-weight="700" text-anchor="middle">1</text>
    <path d="M92 78 Q110 55 100 42" stroke="url(#fur)" stroke-width="6" fill="none" stroke-linecap="round"/>
  </g>

  <!-- Frame 4,4: Love -->
  <g transform="translate(512,512)">
    <ellipse cx="64" cy="82" rx="28" ry="24" fill="url(#fur)"/>
    <ellipse cx="64" cy="86" rx="18" ry="14" fill="url(#belly)"/>
    <circle cx="64" cy="48" r="24" fill="url(#fur)"/>
    <ellipse cx="44" cy="30" rx="10" ry="16" fill="url(#furDark)" transform="rotate(-15,44,30)"/>
    <ellipse cx="84" cy="30" rx="10" ry="16" fill="url(#furDark)" transform="rotate(15,84,30)"/>
    <ellipse cx="44" cy="32" rx="6" ry="10" fill="#c4b5fd" transform="rotate(-15,44,32)"/>
    <ellipse cx="84" cy="32" rx="6" ry="10" fill="#c4b5fd" transform="rotate(15,84,32)"/>
    <!-- Heart eyes -->
    <text x="54" y="50" fill="#f472b6" font-size="14" text-anchor="middle">♥</text>
    <text x="74" y="50" fill="#f472b6" font-size="14" text-anchor="middle">♥</text>
    <circle cx="46" cy="55" r="5" fill="#f9a8d4" opacity="0.4"/>
    <circle cx="82" cy="55" r="5" fill="#f9a8d4" opacity="0.4"/>
    <ellipse cx="64" cy="58" rx="4" ry="3" fill="#4c1d95"/>
    <path d="M56 60 Q64 68 72 60" stroke="#4c1d95" stroke-width="2" fill="none"/>
    <!-- Floating hearts -->
    <text x="24" y="30" fill="#f472b6" font-size="10" opacity="0.6">♥</text>
    <text x="100" y="24" fill="#f472b6" font-size="8" opacity="0.4">♥</text>
    <text x="108" y="44" fill="#f472b6" font-size="12" opacity="0.5">♥</text>
    <rect x="46" y="98" width="10" height="16" rx="5" fill="url(#fur)"/>
    <rect x="72" y="98" width="10" height="16" rx="5" fill="url(#fur)"/>
    <ellipse cx="51" cy="114" rx="7" ry="4" fill="url(#furDark)"/>
    <ellipse cx="77" cy="114" rx="7" ry="4" fill="url(#furDark)"/>
    <path d="M92 76 Q112 50 102 38" stroke="url(#fur)" stroke-width="6" fill="none" stroke-linecap="round"/>
  </g>
</svg>
