<svg xmlns="http://www.w3.org/2000/svg" viewBox="0 0 512 384" fill="none">
  <!-- ═══════════════════════════════════════════════════════════════
       PAWL — PAW Agents Desktop Companion Sprite Sheet (v3)
       Pixel-art purple puppy. 128x128 per frame, 4 columns × 3 rows.
       
       Row 0 (y=0):   Idle/Walk (idle_front, walk_1, walk_2, walk_3)
       Row 1 (y=128): Emotions  (love, excited, happy, mad)
       Row 2 (y=256): Rest/Joy  (sleep, sleep_zzz, sleep_peek, wag)
       ═══════════════════════════════════════════════════════════════ -->

  <defs>
    <linearGradient id="fur" x1="0%" y1="0%" x2="100%" y2="100%">
      <stop offset="0%" stop-color="#9b7fd4"/>
      <stop offset="100%" stop-color="#7351b5"/>
    </linearGradient>
    <linearGradient id="furDark" x1="0%" y1="0%" x2="100%" y2="100%">
      <stop offset="0%" stop-color="#7351b5"/>
      <stop offset="100%" stop-color="#5a3d94"/>
    </linearGradient>
    <linearGradient id="belly" x1="50%" y1="0%" x2="50%" y2="100%">
      <stop offset="0%" stop-color="#e8dff5"/>
      <stop offset="100%" stop-color="#d4c6eb"/>
    </linearGradient>
  </defs>

  <!-- ═══ ROW 0: IDLE / WALK (y=0) ═══ -->

  <!-- Frame 0,0: Idle Front — sitting, facing viewer -->
  <g transform="translate(0,0)">
    <path d="M90 72 Q100 58 96 48" stroke="url(#fur)" stroke-width="7" fill="none" stroke-linecap="round"/>
    <ellipse cx="64" cy="78" rx="28" ry="24" fill="url(#fur)"/>
    <ellipse cx="64" cy="82" rx="18" ry="15" fill="url(#belly)"/>
    <circle cx="64" cy="48" r="22" fill="url(#fur)"/>
    <ellipse cx="44" cy="34" rx="10" ry="16" fill="url(#furDark)" transform="rotate(-15,44,34)"/>
    <ellipse cx="44" cy="36" rx="6" ry="10" fill="#c4b0e0" transform="rotate(-15,44,34)"/>
    <ellipse cx="84" cy="34" rx="10" ry="16" fill="url(#furDark)" transform="rotate(15,84,34)"/>
    <ellipse cx="84" cy="36" rx="6" ry="10" fill="#c4b0e0" transform="rotate(15,84,34)"/>
    <ellipse cx="64" cy="54" rx="10" ry="7" fill="#e8dff5"/>
    <circle cx="55" cy="45" r="4" fill="#1a1a2e"/>
    <circle cx="73" cy="45" r="4" fill="#1a1a2e"/>
    <circle cx="56.5" cy="43.5" r="1.5" fill="white"/>
    <circle cx="74.5" cy="43.5" r="1.5" fill="white"/>
    <ellipse cx="64" cy="52" rx="3" ry="2.5" fill="#2d1b4e"/>
    <path d="M60 56 Q64 60 68 56" stroke="#2d1b4e" stroke-width="1.2" fill="none" stroke-linecap="round"/>
    <ellipse cx="50" cy="100" rx="8" ry="5" fill="url(#furDark)"/>
    <ellipse cx="78" cy="100" rx="8" ry="5" fill="url(#furDark)"/>
  </g>

  <!-- Frame 1,0: Walk Right 1 — right foot forward -->
  <g transform="translate(128,0)">
    <path d="M88 70 Q100 56 96 46" stroke="url(#fur)" stroke-width="7" fill="none" stroke-linecap="round"/>
    <ellipse cx="64" cy="76" rx="26" ry="20" fill="url(#fur)"/>
    <ellipse cx="64" cy="80" rx="16" ry="12" fill="url(#belly)"/>
    <circle cx="64" cy="48" r="20" fill="url(#fur)"/>
    <ellipse cx="46" cy="34" rx="9" ry="14" fill="url(#furDark)" transform="rotate(-20,46,34)"/>
    <ellipse cx="46" cy="36" rx="5" ry="8" fill="#c4b0e0" transform="rotate(-20,46,36)"/>
    <ellipse cx="82" cy="34" rx="9" ry="14" fill="url(#furDark)" transform="rotate(20,82,34)"/>
    <ellipse cx="82" cy="36" rx="5" ry="8" fill="#c4b0e0" transform="rotate(20,82,36)"/>
    <ellipse cx="64" cy="53" rx="9" ry="6" fill="#e8dff5"/>
    <circle cx="56" cy="45" r="3.5" fill="#1a1a2e"/>
    <circle cx="72" cy="45" r="3.5" fill="#1a1a2e"/>
    <circle cx="57.2" cy="43.5" r="1.3" fill="white"/>
    <circle cx="73.2" cy="43.5" r="1.3" fill="white"/>
    <ellipse cx="64" cy="51" rx="2.8" ry="2.2" fill="#2d1b4e"/>
    <path d="M60 55 Q64 58 68 55" stroke="#2d1b4e" stroke-width="1.2" fill="none" stroke-linecap="round"/>
    <rect x="44" y="92" width="9" height="14" rx="4.5" fill="url(#furDark)"/>
    <rect x="72" y="88" width="9" height="14" rx="4.5" fill="url(#furDark)" transform="rotate(-15,76,88)"/>
    <ellipse cx="48" cy="105" rx="6" ry="4" fill="url(#furDark)"/>
    <ellipse cx="78" cy="101" rx="6" ry="4" fill="url(#furDark)"/>
  </g>

  <!-- Frame 2,0: Walk Right 2 — mid stride -->
  <g transform="translate(256,0)">
    <path d="M88 72 Q102 60 100 50" stroke="url(#fur)" stroke-width="7" fill="none" stroke-linecap="round"/>
    <ellipse cx="64" cy="76" rx="26" ry="20" fill="url(#fur)"/>
    <ellipse cx="64" cy="80" rx="16" ry="12" fill="url(#belly)"/>
    <circle cx="64" cy="48" r="20" fill="url(#fur)"/>
    <ellipse cx="46" cy="34" rx="9" ry="14" fill="url(#furDark)" transform="rotate(-20,46,34)"/>
    <ellipse cx="46" cy="36" rx="5" ry="8" fill="#c4b0e0" transform="rotate(-20,46,36)"/>
    <ellipse cx="82" cy="34" rx="9" ry="14" fill="url(#furDark)" transform="rotate(20,82,34)"/>
    <ellipse cx="82" cy="36" rx="5" ry="8" fill="#c4b0e0" transform="rotate(20,82,36)"/>
    <ellipse cx="64" cy="53" rx="9" ry="6" fill="#e8dff5"/>
    <circle cx="56" cy="45" r="3.5" fill="#1a1a2e"/>
    <circle cx="72" cy="45" r="3.5" fill="#1a1a2e"/>
    <circle cx="57.2" cy="43.5" r="1.3" fill="white"/>
    <circle cx="73.2" cy="43.5" r="1.3" fill="white"/>
    <ellipse cx="64" cy="51" rx="2.8" ry="2.2" fill="#2d1b4e"/>
    <path d="M60 55 Q64 58 68 55" stroke="#2d1b4e" stroke-width="1.2" fill="none" stroke-linecap="round"/>
    <rect x="48" y="88" width="9" height="14" rx="4.5" fill="url(#furDark)" transform="rotate(10,52,88)"/>
    <rect x="68" y="92" width="9" height="14" rx="4.5" fill="url(#furDark)"/>
    <ellipse cx="54" cy="101" rx="6" ry="4" fill="url(#furDark)"/>
    <ellipse cx="72" cy="105" rx="6" ry="4" fill="url(#furDark)"/>
  </g>

  <!-- Frame 3,0: Walk Right 3 — left foot forward -->
  <g transform="translate(384,0)">
    <path d="M86 74 Q98 60 96 50" stroke="url(#fur)" stroke-width="7" fill="none" stroke-linecap="round"/>
    <ellipse cx="64" cy="76" rx="26" ry="20" fill="url(#fur)"/>
    <ellipse cx="64" cy="80" rx="16" ry="12" fill="url(#belly)"/>
    <circle cx="64" cy="48" r="20" fill="url(#fur)"/>
    <ellipse cx="46" cy="34" rx="9" ry="14" fill="url(#furDark)" transform="rotate(-20,46,34)"/>
    <ellipse cx="46" cy="36" rx="5" ry="8" fill="#c4b0e0" transform="rotate(-20,46,36)"/>
    <ellipse cx="82" cy="34" rx="9" ry="14" fill="url(#furDark)" transform="rotate(20,82,34)"/>
    <ellipse cx="82" cy="36" rx="5" ry="8" fill="#c4b0e0" transform="rotate(20,82,36)"/>
    <ellipse cx="64" cy="53" rx="9" ry="6" fill="#e8dff5"/>
    <circle cx="56" cy="45" r="3.5" fill="#1a1a2e"/>
    <circle cx="72" cy="45" r="3.5" fill="#1a1a2e"/>
    <circle cx="57.2" cy="43.5" r="1.3" fill="white"/>
    <circle cx="73.2" cy="43.5" r="1.3" fill="white"/>
    <ellipse cx="64" cy="51" rx="2.8" ry="2.2" fill="#2d1b4e"/>
    <path d="M60 55 Q64 58 68 55" stroke="#2d1b4e" stroke-width="1.2" fill="none" stroke-linecap="round"/>
    <rect x="44" y="88" width="9" height="14" rx="4.5" fill="url(#furDark)" transform="rotate(-10,48,88)"/>
    <rect x="72" y="92" width="9" height="14" rx="4.5" fill="url(#furDark)"/>
    <ellipse cx="48" cy="101" rx="6" ry="4" fill="url(#furDark)"/>
    <ellipse cx="76" cy="105" rx="6" ry="4" fill="url(#furDark)"/>
  </g>

  <!-- ═══ ROW 1: EMOTIONS (y=128) ═══ -->

  <!-- Frame 0,1: Love — heart eyes -->
  <g transform="translate(0,128)">
    <path d="M90 72 Q100 58 96 48" stroke="url(#fur)" stroke-width="7" fill="none" stroke-linecap="round"/>
    <ellipse cx="64" cy="78" rx="28" ry="24" fill="url(#fur)"/>
    <ellipse cx="64" cy="82" rx="18" ry="15" fill="url(#belly)"/>
    <circle cx="64" cy="48" r="22" fill="url(#fur)"/>
    <ellipse cx="44" cy="34" rx="10" ry="16" fill="url(#furDark)" transform="rotate(-15,44,34)"/>
    <ellipse cx="44" cy="36" rx="6" ry="10" fill="#c4b0e0" transform="rotate(-15,44,34)"/>
    <ellipse cx="84" cy="34" rx="10" ry="16" fill="url(#furDark)" transform="rotate(15,84,34)"/>
    <ellipse cx="84" cy="36" rx="6" ry="10" fill="#c4b0e0" transform="rotate(15,84,34)"/>
    <ellipse cx="64" cy="54" rx="10" ry="7" fill="#e8dff5"/>
    <path d="M51 44 C51 40 55 38 55 42 C55 38 59 40 59 44 C59 48 55 50 55 50 C55 50 51 48 51 44Z" fill="#f43f5e"/>
    <path d="M69 44 C69 40 73 38 73 42 C73 38 77 40 77 44 C77 48 73 50 73 50 C73 50 69 48 69 44Z" fill="#f43f5e"/>
    <ellipse cx="64" cy="52" rx="3" ry="2.5" fill="#2d1b4e"/>
    <path d="M58 57 Q64 63 70 57" stroke="#2d1b4e" stroke-width="1.5" fill="none" stroke-linecap="round"/>
    <ellipse cx="50" cy="100" rx="8" ry="5" fill="url(#furDark)"/>
    <ellipse cx="78" cy="100" rx="8" ry="5" fill="url(#furDark)"/>
  </g>

  <!-- Frame 1,1: Excited — star eyes, open mouth -->
  <g transform="translate(128,128)">
    <path d="M90 68 Q104 54 100 42" stroke="url(#fur)" stroke-width="7" fill="none" stroke-linecap="round"/>
    <ellipse cx="64" cy="78" rx="28" ry="24" fill="url(#fur)"/>
    <ellipse cx="64" cy="82" rx="18" ry="15" fill="url(#belly)"/>
    <circle cx="64" cy="48" r="22" fill="url(#fur)"/>
    <ellipse cx="44" cy="34" rx="10" ry="16" fill="url(#furDark)" transform="rotate(-15,44,34)"/>
    <ellipse cx="44" cy="36" rx="6" ry="10" fill="#c4b0e0" transform="rotate(-15,44,34)"/>
    <ellipse cx="84" cy="34" rx="10" ry="16" fill="url(#furDark)" transform="rotate(15,84,34)"/>
    <ellipse cx="84" cy="36" rx="6" ry="10" fill="#c4b0e0" transform="rotate(15,84,34)"/>
    <ellipse cx="64" cy="54" rx="10" ry="7" fill="#e8dff5"/>
    <polygon points="55,40 56.5,44 60.5,44 57.5,46.5 58.5,50.5 55,48 51.5,50.5 52.5,46.5 49.5,44 53.5,44" fill="#fbbf24"/>
    <polygon points="73,40 74.5,44 78.5,44 75.5,46.5 76.5,50.5 73,48 69.5,50.5 70.5,46.5 67.5,44 71.5,44" fill="#fbbf24"/>
    <ellipse cx="64" cy="52" rx="3" ry="2.5" fill="#2d1b4e"/>
    <ellipse cx="64" cy="59" rx="7" ry="5" fill="#2d1b4e"/>
    <ellipse cx="64" cy="57" rx="5" ry="2.5" fill="#e8dff5"/>
    <path d="M58 60 Q64 65 70 60" fill="#e87d7d"/>
    <ellipse cx="50" cy="100" rx="8" ry="5" fill="url(#furDark)"/>
    <ellipse cx="78" cy="100" rx="8" ry="5" fill="url(#furDark)"/>
  </g>

  <!-- Frame 2,1: Happy — wink, tongue out -->
  <g transform="translate(256,128)">
    <path d="M90 72 Q100 58 96 48" stroke="url(#fur)" stroke-width="7" fill="none" stroke-linecap="round"/>
    <ellipse cx="64" cy="78" rx="28" ry="24" fill="url(#fur)"/>
    <ellipse cx="64" cy="82" rx="18" ry="15" fill="url(#belly)"/>
    <circle cx="64" cy="48" r="22" fill="url(#fur)"/>
    <ellipse cx="44" cy="34" rx="10" ry="16" fill="url(#furDark)" transform="rotate(-15,44,34)"/>
    <ellipse cx="44" cy="36" rx="6" ry="10" fill="#c4b0e0" transform="rotate(-15,44,34)"/>
    <ellipse cx="84" cy="34" rx="10" ry="16" fill="url(#furDark)" transform="rotate(15,84,34)"/>
    <ellipse cx="84" cy="36" rx="6" ry="10" fill="#c4b0e0" transform="rotate(15,84,34)"/>
    <ellipse cx="64" cy="54" rx="10" ry="7" fill="#e8dff5"/>
    <path d="M51 45 Q55 42 59 45" stroke="#1a1a2e" stroke-width="2.5" fill="none" stroke-linecap="round"/>
    <circle cx="73" cy="45" r="4" fill="#1a1a2e"/>
    <circle cx="74.5" cy="43.5" r="1.5" fill="white"/>
    <ellipse cx="64" cy="52" rx="3" ry="2.5" fill="#2d1b4e"/>
    <path d="M58 56 Q64 62 70 56" stroke="#2d1b4e" stroke-width="1.5" fill="none" stroke-linecap="round"/>
    <ellipse cx="66" cy="60" rx="4" ry="5" fill="#e87d7d" opacity="0.9"/>
    <ellipse cx="50" cy="100" rx="8" ry="5" fill="url(#furDark)"/>
    <ellipse cx="78" cy="100" rx="8" ry="5" fill="url(#furDark)"/>
  </g>

  <!-- Frame 3,1: Mad — angry eyebrows, frown -->
  <g transform="translate(384,128)">
    <path d="M90 72 Q100 62 96 52" stroke="url(#fur)" stroke-width="7" fill="none" stroke-linecap="round"/>
    <ellipse cx="64" cy="78" rx="28" ry="24" fill="url(#fur)"/>
    <ellipse cx="64" cy="82" rx="18" ry="15" fill="url(#belly)"/>
    <circle cx="64" cy="48" r="22" fill="url(#fur)"/>
    <ellipse cx="44" cy="34" rx="10" ry="16" fill="url(#furDark)" transform="rotate(-15,44,34)"/>
    <ellipse cx="44" cy="36" rx="6" ry="10" fill="#c4b0e0" transform="rotate(-15,44,34)"/>
    <ellipse cx="84" cy="34" rx="10" ry="16" fill="url(#furDark)" transform="rotate(15,84,34)"/>
    <ellipse cx="84" cy="36" rx="6" ry="10" fill="#c4b0e0" transform="rotate(15,84,34)"/>
    <ellipse cx="64" cy="54" rx="10" ry="7" fill="#e8dff5"/>
    <circle cx="55" cy="46" r="3.5" fill="#1a1a2e"/>
    <circle cx="73" cy="46" r="3.5" fill="#1a1a2e"/>
    <circle cx="56.2" cy="44.5" r="1.2" fill="white"/>
    <circle cx="74.2" cy="44.5" r="1.2" fill="white"/>
    <line x1="49" y1="38" x2="59" y2="41" stroke="#2d1b4e" stroke-width="2.5" stroke-linecap="round"/>
    <line x1="79" y1="38" x2="69" y2="41" stroke="#2d1b4e" stroke-width="2.5" stroke-linecap="round"/>
    <g transform="translate(82,24)">
      <line x1="0" y1="2" x2="8" y2="2" stroke="#f43f5e" stroke-width="2" stroke-linecap="round"/>
      <line x1="4" y1="0" x2="4" y2="6" stroke="#f43f5e" stroke-width="2" stroke-linecap="round"/>
    </g>
    <ellipse cx="64" cy="52" rx="3" ry="2.5" fill="#2d1b4e"/>
    <path d="M58 58 Q64 54 70 58" stroke="#2d1b4e" stroke-width="1.5" fill="none" stroke-linecap="round"/>
    <ellipse cx="50" cy="100" rx="8" ry="5" fill="url(#furDark)"/>
    <ellipse cx="78" cy="100" rx="8" ry="5" fill="url(#furDark)"/>
  </g>

  <!-- ═══ ROW 2: REST & JOY (y=256) ═══ -->

  <!-- Frame 0,2: Sleep — lying down, happy face, small Zzz -->
  <g transform="translate(0,256)">
    <path d="M96 86 Q106 76 102 66" stroke="url(#fur)" stroke-width="7" fill="none" stroke-linecap="round"/>
    <ellipse cx="64" cy="90" rx="34" ry="16" fill="url(#fur)"/>
    <ellipse cx="64" cy="93" rx="22" ry="10" fill="url(#belly)"/>
    <circle cx="44" cy="76" r="20" fill="url(#fur)"/>
    <ellipse cx="28" cy="62" rx="8" ry="14" fill="url(#furDark)" transform="rotate(-25,28,62)"/>
    <ellipse cx="28" cy="64" rx="5" ry="8" fill="#c4b0e0" transform="rotate(-25,28,64)"/>
    <ellipse cx="58" cy="64" rx="8" ry="14" fill="url(#furDark)" transform="rotate(10,58,64)"/>
    <ellipse cx="58" cy="66" rx="5" ry="8" fill="#c4b0e0" transform="rotate(10,58,66)"/>
    <ellipse cx="44" cy="80" rx="8" ry="5.5" fill="#e8dff5"/>
    <path d="M34 74 Q38 70 42 74" stroke="#1a1a2e" stroke-width="2.2" fill="none" stroke-linecap="round"/>
    <path d="M46 74 Q50 70 54 74" stroke="#1a1a2e" stroke-width="2.2" fill="none" stroke-linecap="round"/>
    <ellipse cx="44" cy="78" rx="2.5" ry="2" fill="#2d1b4e"/>
    <path d="M40 83 Q44 87 48 83" stroke="#2d1b4e" stroke-width="1.2" fill="none" stroke-linecap="round"/>
    <ellipse cx="46" cy="85" rx="3" ry="3.5" fill="#e87d7d" opacity="0.9"/>
    <ellipse cx="30" cy="98" rx="8" ry="5" fill="url(#furDark)"/>
    <ellipse cx="50" cy="100" rx="7" ry="4" fill="url(#furDark)"/>
    <text x="68" y="58" font-family="Arial,sans-serif" font-weight="bold" font-size="14" fill="#8b7fb5" opacity="0.7">z</text>
    <text x="78" y="48" font-family="Arial,sans-serif" font-weight="bold" font-size="18" fill="#8b7fb5" opacity="0.5">Z</text>
  </g>

  <!-- Frame 1,2: Sleep Zzz — lying down, fully asleep -->
  <g transform="translate(128,256)">
    <path d="M96 86 Q104 80 100 72" stroke="url(#fur)" stroke-width="7" fill="none" stroke-linecap="round"/>
    <ellipse cx="64" cy="90" rx="34" ry="16" fill="url(#fur)"/>
    <ellipse cx="64" cy="93" rx="22" ry="10" fill="url(#belly)"/>
    <circle cx="44" cy="76" r="20" fill="url(#fur)"/>
    <ellipse cx="28" cy="62" rx="8" ry="14" fill="url(#furDark)" transform="rotate(-25,28,62)"/>
    <ellipse cx="28" cy="64" rx="5" ry="8" fill="#c4b0e0" transform="rotate(-25,28,64)"/>
    <ellipse cx="58" cy="64" rx="8" ry="14" fill="url(#furDark)" transform="rotate(10,58,64)"/>
    <ellipse cx="58" cy="66" rx="5" ry="8" fill="#c4b0e0" transform="rotate(10,58,66)"/>
    <ellipse cx="44" cy="80" rx="8" ry="5.5" fill="#e8dff5"/>
    <line x1="34" y1="74" x2="42" y2="74" stroke="#1a1a2e" stroke-width="2.2" stroke-linecap="round"/>
    <line x1="46" y1="74" x2="54" y2="74" stroke="#1a1a2e" stroke-width="2.2" stroke-linecap="round"/>
    <ellipse cx="44" cy="78" rx="2.5" ry="2" fill="#2d1b4e"/>
    <path d="M40 83 Q44 85 48 83" stroke="#2d1b4e" stroke-width="1" fill="none" stroke-linecap="round"/>
    <ellipse cx="30" cy="98" rx="8" ry="5" fill="url(#furDark)"/>
    <ellipse cx="50" cy="100" rx="7" ry="4" fill="url(#furDark)"/>
    <text x="64" y="60" font-family="Arial,sans-serif" font-weight="bold" font-size="12" fill="#8b7fb5" opacity="0.8">z</text>
    <text x="74" y="48" font-family="Arial,sans-serif" font-weight="bold" font-size="16" fill="#8b7fb5" opacity="0.6">Z</text>
    <text x="86" y="36" font-family="Arial,sans-serif" font-weight="bold" font-size="20" fill="#8b7fb5" opacity="0.4">Z</text>
  </g>

  <!-- Frame 2,2: Sleep Peek — lying down, one eye open -->
  <g transform="translate(256,256)">
    <path d="M96 86 Q104 80 100 72" stroke="url(#fur)" stroke-width="7" fill="none" stroke-linecap="round"/>
    <ellipse cx="64" cy="90" rx="34" ry="16" fill="url(#fur)"/>
    <ellipse cx="64" cy="93" rx="22" ry="10" fill="url(#belly)"/>
    <circle cx="44" cy="76" r="20" fill="url(#fur)"/>
    <ellipse cx="28" cy="62" rx="8" ry="14" fill="url(#furDark)" transform="rotate(-25,28,62)"/>
    <ellipse cx="28" cy="64" rx="5" ry="8" fill="#c4b0e0" transform="rotate(-25,28,64)"/>
    <ellipse cx="58" cy="64" rx="8" ry="14" fill="url(#furDark)" transform="rotate(10,58,64)"/>
    <ellipse cx="58" cy="66" rx="5" ry="8" fill="#c4b0e0" transform="rotate(10,58,66)"/>
    <ellipse cx="44" cy="80" rx="8" ry="5.5" fill="#e8dff5"/>
    <line x1="34" y1="74" x2="42" y2="74" stroke="#1a1a2e" stroke-width="2.2" stroke-linecap="round"/>
    <circle cx="50" cy="73" r="3.5" fill="#1a1a2e"/>
    <circle cx="51.5" cy="72" r="1.2" fill="white"/>
    <ellipse cx="44" cy="78" rx="2.5" ry="2" fill="#2d1b4e"/>
    <path d="M40 83 Q44 85 48 83" stroke="#2d1b4e" stroke-width="1" fill="none" stroke-linecap="round"/>
    <ellipse cx="30" cy="98" rx="8" ry="5" fill="url(#furDark)"/>
    <ellipse cx="50" cy="100" rx="7" ry="4" fill="url(#furDark)"/>
  </g>

  <!-- Frame 3,2: Wag — happy lying down, tail wagging, music note -->
  <g transform="translate(384,256)">
    <path d="M96 82 Q110 62 104 50" stroke="url(#fur)" stroke-width="7" fill="none" stroke-linecap="round"/>
    <line x1="108" y1="56" x2="114" y2="52" stroke="#8b7fb5" stroke-width="1.5" opacity="0.5" stroke-linecap="round"/>
    <line x1="110" y1="62" x2="116" y2="60" stroke="#8b7fb5" stroke-width="1.5" opacity="0.5" stroke-linecap="round"/>
    <ellipse cx="64" cy="90" rx="34" ry="16" fill="url(#fur)"/>
    <ellipse cx="64" cy="93" rx="22" ry="10" fill="url(#belly)"/>
    <circle cx="44" cy="76" r="20" fill="url(#fur)"/>
    <ellipse cx="28" cy="62" rx="8" ry="14" fill="url(#furDark)" transform="rotate(-25,28,62)"/>
    <ellipse cx="28" cy="64" rx="5" ry="8" fill="#c4b0e0" transform="rotate(-25,28,64)"/>
    <ellipse cx="58" cy="64" rx="8" ry="14" fill="url(#furDark)" transform="rotate(10,58,64)"/>
    <ellipse cx="58" cy="66" rx="5" ry="8" fill="#c4b0e0" transform="rotate(10,58,66)"/>
    <ellipse cx="44" cy="80" rx="8" ry="5.5" fill="#e8dff5"/>
    <circle cx="38" cy="73" r="3.5" fill="#1a1a2e"/>
    <circle cx="50" cy="73" r="3.5" fill="#1a1a2e"/>
    <circle cx="39.2" cy="71.5" r="1.3" fill="white"/>
    <circle cx="51.2" cy="71.5" r="1.3" fill="white"/>
    <ellipse cx="44" cy="78" rx="2.5" ry="2" fill="#2d1b4e"/>
    <path d="M38 83 Q44 89 50 83" stroke="#2d1b4e" stroke-width="1.5" fill="none" stroke-linecap="round"/>
    <ellipse cx="46" cy="85" rx="3" ry="3" fill="#e87d7d" opacity="0.9"/>
    <ellipse cx="30" cy="98" rx="8" ry="5" fill="url(#furDark)"/>
    <ellipse cx="50" cy="100" rx="7" ry="4" fill="url(#furDark)"/>
    <g transform="translate(100,38)">
      <circle cx="0" cy="8" r="3" fill="#8b7fb5" opacity="0.7"/>
      <line x1="3" y1="8" x2="3" y2="-2" stroke="#8b7fb5" stroke-width="1.5" opacity="0.7"/>
      <path d="M3 -2 Q8 -4 6 0" stroke="#8b7fb5" stroke-width="1.5" fill="none" opacity="0.7"/>
    </g>
  </g>

</svg>
